<svg width="18" height="18" viewBox="0 0 18 18" fill="none" xmlns="http://www.w3.org/2000/svg">
<path d="M8.99118 18C4.02638 18.0106 -0.0119775 13.9695 2.66932e-05 9.00247C0.0120309 4.0157 4.01508 0.0077799 8.99188 1.12429e-05C13.9616 -0.00775741 17.9908 4.01146 18 8.98622C18.0099 13.9808 14.0026 17.9901 8.99118 18ZM4.18173 8.59426C5.66178 8.59426 7.11358 8.59426 8.57668 8.59426C8.57668 7.39365 8.57668 6.21564 8.57668 5.00514C7.64388 5.00514 6.74074 5.00585 5.8376 5.00514C4.95212 5.00444 4.94647 5.00232 4.66048 5.85263C4.36391 6.73402 4.17114 7.63518 4.18173 8.59426ZM9.42686 5.00585C9.42686 6.23118 9.42686 7.40919 9.42686 8.58155C10.9076 8.58155 12.3559 8.58155 13.8225 8.58155C13.8098 7.36752 13.5351 6.24742 13.0712 5.1704C13.0394 5.09554 12.9187 5.01291 12.8389 5.0122C11.7133 5.00302 10.5863 5.00585 9.42686 5.00585ZM8.58445 9.42339C7.11428 9.42339 5.66601 9.42339 4.18596 9.42339C4.2474 10.6593 4.56233 11.8006 5.1004 12.8811C5.13853 12.9581 5.31295 13.0012 5.42522 13.0019C6.38768 13.0111 7.35084 13.0083 8.314 13.0061C8.40227 13.0061 8.49124 12.9864 8.58515 12.9751C8.58445 11.7787 8.58445 10.6099 8.58445 9.42339ZM13.8133 9.43115C12.3121 9.43115 10.8638 9.43115 9.42121 9.43115C9.42121 10.6318 9.42121 11.8006 9.42121 13.0076C10.3018 13.0076 11.1562 13.0076 12.0106 13.0076C12.901 13.0069 12.9067 13.009 13.2202 12.1806C13.5521 11.3006 13.7773 10.3966 13.8133 9.43115ZM1.57893 9.4022C1.65378 10.6861 2.01108 11.8232 2.65578 12.8698C2.69603 12.9355 2.79913 12.9991 2.87468 13.0012C3.35202 13.0132 3.82937 13.0076 4.30106 13.0076C4.31166 12.9532 4.32578 12.927 4.31872 12.9101C3.86468 11.8465 3.55186 10.7483 3.46924 9.58865C3.4643 9.52297 3.34496 9.4135 3.27576 9.41138C2.7271 9.39584 2.17773 9.4022 1.57893 9.4022ZM14.6579 9.41844C14.35 10.6374 14.052 11.8197 13.7519 13.0069C14.1466 13.0069 14.583 13.0238 15.0159 12.997C15.1493 12.9885 15.3259 12.8903 15.3951 12.7794C15.8322 12.0746 16.128 11.3083 16.2799 10.4912C16.3448 10.1409 16.3836 9.78498 16.4359 9.41915C15.7707 9.41844 15.1741 9.41844 14.6579 9.41844ZM16.4225 8.59638C16.3441 7.32232 15.9875 6.18103 15.3414 5.13156C15.3054 5.07294 15.2143 5.01432 15.1479 5.01291C14.7073 5.00232 14.266 5.00726 13.896 5.00726C14.1544 6.21493 14.4065 7.38941 14.6649 8.59638C15.1889 8.59638 15.7834 8.59638 16.4225 8.59638ZM3.33508 8.59426C3.59211 7.39365 3.8449 6.2107 4.10335 5.00585C3.73334 5.00585 3.30189 5.0009 2.87044 5.01079C2.80124 5.0122 2.70521 5.06094 2.6699 5.11743C2.01532 6.17538 1.65096 7.32514 1.58176 8.59426C2.19397 8.59426 2.77794 8.59426 3.33508 8.59426ZM8.58586 1.58764C7.89103 1.606 7.26257 1.65332 6.82971 2.26351C6.43005 2.82709 5.99224 3.36454 5.57563 3.91682C5.51773 3.9931 5.48736 4.08985 5.4337 4.19862C6.50913 4.19862 7.53726 4.19862 8.58586 4.19862C8.58586 3.32429 8.58586 2.47327 8.58586 1.58764ZM12.5345 4.1965C12.5621 4.16683 12.5896 4.13788 12.6172 4.10822C12.1186 3.47825 11.6024 2.86241 11.1272 2.21549C10.688 1.61801 10.0659 1.62437 9.42545 1.58482C9.42545 2.47751 9.42545 3.337 9.42545 4.19579C10.4825 4.1965 11.5085 4.1965 12.5345 4.1965ZM5.60246 13.8106C6.13276 14.6891 6.78523 15.4003 7.4843 16.0797C7.807 16.394 8.16854 16.4272 8.58727 16.4067C8.58727 15.5317 8.58727 14.6821 8.58727 13.8106C7.59798 13.8106 6.62917 13.8106 5.60246 13.8106ZM9.41697 13.8084C9.41697 14.6898 9.41697 15.5401 9.41697 16.4025C9.89149 16.4505 10.2643 16.3431 10.6047 16.0013C11.2656 15.3367 11.8927 14.6517 12.4004 13.8084C11.385 13.8084 10.4183 13.8084 9.41697 13.8084ZM11.7168 15.9286C12.8608 15.4688 13.8388 14.7929 14.6791 13.7901C14.1911 13.7901 13.7823 13.7851 13.3734 13.7943C13.3035 13.7957 13.2096 13.8381 13.1693 13.8932C12.6842 14.5627 12.2076 15.2386 11.7168 15.9286ZM3.31248 13.7901C4.17608 14.7894 5.14065 15.4787 6.28035 15.9222C5.79312 15.2372 5.31577 14.5613 4.83066 13.8918C4.79112 13.8374 4.6965 13.7957 4.62588 13.7943C4.21845 13.7858 3.8096 13.7901 3.31248 13.7901ZM3.3372 4.21839C3.76087 4.21839 4.121 4.22475 4.48113 4.21274C4.5475 4.21062 4.63506 4.1513 4.6739 4.09268C5.0651 3.49873 5.44782 2.89984 5.81854 2.32566C5.2381 2.45208 3.9713 3.39279 3.3372 4.21839ZM14.6508 4.22051C14.0916 3.43234 12.6687 2.37793 12.1871 2.33767C12.5487 2.89419 12.9215 3.47684 13.3077 4.0503C13.3621 4.13082 13.4843 4.20709 13.5796 4.21274C13.9178 4.23251 14.2582 4.22051 14.6508 4.22051Z" fill="white"/>
</svg>
