<svg width="356" height="67" viewBox="0 0 356 67" fill="none" xmlns="http://www.w3.org/2000/svg">
<path d="M127.49 25.8601V34.5601H99.19V66.3501H89.3V34.5601V25.8601H127.49Z" fill="black"/>
<path d="M135.15 25.8501H172.51V34.5401H145.03V41.7501H158.93V50.4401H145.03V57.6401L172.51 57.6501V66.3501L135.15 66.3401V25.8501Z" fill="black"/>
<path d="M269.75 25.8501H307.12V34.5401H279.64V41.7501H293.54V50.4401H279.64V57.6401L307.12 57.6501V66.3501L269.75 66.3401V25.8501Z" fill="black"/>
<path d="M218.71 66.3501H207.42L198.74 53.4501L190.05 66.3501H180.17V25.8601H190.05V49.5601L193.09 45.0601L198.73 36.6701L206.01 25.8601H217.3L204.38 45.0601L218.71 66.3501Z" fill="black"/>
<path d="M262.1 35.7501V66.3501H252.2L244.93 55.5401L239.29 47.1501L236.25 42.6501V66.3501H226.36V25.8601H236.25L244.94 38.7601L250.58 47.1501L252.21 49.5801V35.7501H262.1Z" fill="black"/>
<path d="M262.09 25.8601H252.21V35.7401H262.09V25.8601Z" fill="#314AFF"/>
<path d="M314.77 25.8701V66.3501H355.25V25.8701H314.77ZM345.37 56.4701H324.66V35.7601H345.37V56.4701Z" fill="black"/>
<path d="M339.95 46.1101V25.8701H330.07V46.1101H339.95Z" fill="#314AFF"/>
<path d="M0 0V66.35H66.35V0H0ZM50.16 50.16H16.2V16.2H50.15V50.15L50.16 50.16Z" fill="black"/>
<path d="M41.27 33.17V0L25.07 0L25.07 33.17H41.27Z" fill="#314AFF"/>
</svg>
